<svg id="svg" xmlns="http://www.w3.org/2000/svg" xmlns:xlink="http://www.w3.org/1999/xlink" width="400" height="381.1764705882353" viewBox="0, 0, 400,381.1764705882353"><g id="svgg"><path id="path0" d="M240.064 104.706 C 240.164 143.022,243.456 150.588,260.028 150.588 L 274.252 150.588 271.285 125.882 C 269.652 112.294,268.299 96.412,268.276 90.588 C 268.243 81.970,265.609 80.000,254.118 80.000 C 240.216 80.000,240.001 80.378,240.064 104.706 M67.050 164.584 C 61.798 172.994,63.707 175.447,87.186 190.467 C 116.449 209.186,120.176 210.107,124.202 199.615 C 129.119 186.801,127.662 184.708,103.459 169.815 C 75.614 152.682,74.576 152.533,67.050 164.584 M175.990 165.882 C 148.645 197.424,149.506 194.990,161.660 206.408 L 172.717 216.796 190.400 195.216 C 207.453 174.405,207.787 173.311,199.783 164.466 C 189.263 152.841,187.189 152.965,175.990 165.882 M260.063 214.424 C 236.745 229.563,235.714 231.066,240.874 242.392 C 243.874 248.975,247.569 253.777,249.086 253.063 C 262.369 246.811,301.145 223.024,301.067 221.176 C 301.012 219.882,297.308 214.234,292.837 208.625 L 284.706 198.426 260.063 214.424 M268.074 292.066 C 261.706 303.964,265.710 309.497,290.957 323.686 L 309.509 334.113 317.483 321.942 C 321.869 315.248,324.759 309.206,323.905 308.516 C 297.933 287.504,274.250 280.526,268.074 292.066 " stroke="none" fill="#000000" fill-rule="evenodd"></path></g></svg>